<?xml version="1.0" encoding="utf-8"?>
<!-- Generator: Adobe Illustrator 21.1.0, SVG Export Plug-In . SVG Version: 6.00 Build 0)  -->
<svg version="1.1" id="Layer_1" xmlns="http://www.w3.org/2000/svg" xmlns:xlink="http://www.w3.org/1999/xlink" x="0px" y="0px"
	 viewBox="0 0 100 100" style="enable-background:new 0 0 100 100;" xml:space="preserve">
<style type="text/css">
	.st0{fill:#D9272E;}
	.st1{fill:#004E9B;}
</style>
<g>
	<path class="st0" d="M73.2,13.3V20c3.7,0,6.6,3,6.6,6.7v60c0,3.7-3,6.7-6.6,6.7H26.8c-3.7,0-6.6-3-6.6-6.7v-60c0-3.7,3-6.7,6.6-6.7
		v-6.7c-7.3,0-13.3,6-13.3,13.3v60c0,7.4,6,13.3,13.3,13.3h46.5c7.3,0,13.3-6,13.3-13.3v-60C86.5,19.3,80.5,13.3,73.2,13.3z"/>
	<path class="st1" d="M48.4,41.7h23.4c2,0,2,5,0,5H48.4C46.1,46.7,46.1,41.7,48.4,41.7z"/>
	<path class="st1" d="M42.3,37.3c-1.2-1-3-0.8-3.9,0.5l-5.6,7.4l-2-3.1c-0.7-1-2.1-1.2-3-0.4c-1.2,1.1-1.3,2.9-0.2,4l3,3.4
		c1,1.2,2.8,1.2,3.9,0.2l8.1-7.7C43.7,40.4,43.6,38.4,42.3,37.3L42.3,37.3z"/>
	<path class="st1" d="M42.3,54c-1.2-1-3-0.8-3.9,0.5l-5.6,7.4l-2-3.1c-0.7-1-2.1-1.2-3-0.4c-1.2,1.1-1.3,2.9-0.2,4l3,3.4
		c1,1.2,2.8,1.2,3.9,0.2l8.1-7.7C43.7,57,43.6,55.1,42.3,54L42.3,54z"/>
	<path class="st1" d="M42.3,70.6c-1.2-1-3-0.8-3.9,0.5l-5.6,7.4l-2-3.1c-0.7-1-2.1-1.2-3-0.4c-1.2,1.1-1.3,2.9-0.2,4l3,3.4
		c1,1.2,2.8,1.2,3.9,0.2l8.1-7.7C43.7,73.7,43.6,71.7,42.3,70.6L42.3,70.6z"/>
	<path class="st1" d="M48.4,58.3h23.4c2,0,2,5,0,5H48.4C46.1,63.3,46.1,58.3,48.4,58.3z"/>
	<path class="st1" d="M48.4,75h23.4c2,0,2,5,0,5H48.4C46.1,80,46.1,75,48.4,75z"/>
	<path class="st0" d="M63.3,13.3C63.3,6,57.3,0,50,0S36.7,6,36.7,13.3h-6.6v13.3c0,1.8,1.5,3.3,3.3,3.3h33.2c1.8,0,3.3-1.5,3.3-3.3
		V13.3H63.3z M43.4,13.3c0-3.7,3-6.7,6.6-6.7c3.7,0,6.6,3,6.6,6.7H43.4z"/>
</g>
<g>
	<path class="st0" d="M2456.8,3031.7v13c7.1,0,12.9,5.8,12.9,13v117c0,7.2-5.8,13-12.9,13h-90.4c-7.1,0-12.9-5.8-12.9-13v-117
		c0-7.2,5.8-13,12.9-13v-13c-14.2,0-25.8,11.7-25.8,26v117c0,14.3,11.6,26,25.8,26h90.4c14.2,0,25.8-11.7,25.8-26v-117
		C2482.6,3043.3,2471,3031.7,2456.8,3031.7z"/>
	<path class="st1" d="M2408.4,3086.9h45.5c3.9,0,3.9,9.8,0,9.8h-45.5C2404.1,3096.7,2404.1,3086.9,2408.4,3086.9z"/>
	<path class="st1" d="M2396.6,3078.4c-2.4-2-5.8-1.5-7.6,0.9l-10.9,14.5l-3.9-6c-1.3-2-4.1-2.4-5.9-0.8c-2.3,2.1-2.5,5.6-0.5,7.8
		l5.9,6.6c2,2.2,5.4,2.4,7.6,0.3l15.7-15c2.4-2.3,2.2-6.1-0.3-8.2L2396.6,3078.4z"/>
	<path class="st1" d="M2396.6,3110.9c-2.4-2-5.8-1.5-7.6,0.9l-10.9,14.5l-3.9-6c-1.3-2-4.1-2.4-5.9-0.8c-2.3,2.1-2.5,5.6-0.5,7.8
		l5.9,6.6c2,2.2,5.4,2.4,7.6,0.3l15.7-15c2.4-2.3,2.2-6.1-0.3-8.2L2396.6,3110.9z"/>
	<path class="st1" d="M2396.6,3143.4c-2.4-2-5.8-1.5-7.6,0.9l-10.9,14.5l-3.9-6c-1.3-2-4.1-2.4-5.9-0.8c-2.3,2.1-2.5,5.6-0.5,7.8
		l5.9,6.6c2,2.2,5.4,2.4,7.6,0.3l15.7-15c2.4-2.3,2.2-6.1-0.3-8.2L2396.6,3143.4z"/>
	<path class="st1" d="M2408.4,3119.4h45.5c3.9,0,3.9,9.8,0,9.8h-45.5C2404.1,3129.2,2404.1,3119.4,2408.4,3119.4z"/>
	<path class="st1" d="M2408.4,3151.9h45.5c3.9,0,3.9,9.8,0,9.8h-45.5C2404.1,3161.7,2404.1,3151.9,2408.4,3151.9z"/>
	<path class="st0" d="M2437.4,3031.7c0-14.4-11.6-26-25.8-26s-25.8,11.6-25.8,26h-12.9v26c0,3.6,2.9,6.5,6.5,6.5h64.5
		c3.6,0,6.5-2.9,6.5-6.5v-26H2437.4z M2398.7,3031.7c0-7.2,5.8-13,12.9-13c7.1,0,12.9,5.8,12.9,13H2398.7z"/>
</g>
</svg>
