<?xml version="1.0" encoding="utf-8"?>
<!-- Generator: Adobe Illustrator 21.1.0, SVG Export Plug-In . SVG Version: 6.00 Build 0)  -->
<svg version="1.1" id="Layer_1" xmlns="http://www.w3.org/2000/svg" xmlns:xlink="http://www.w3.org/1999/xlink" x="0px" y="0px"
	 viewBox="0 0 100 100" style="enable-background:new 0 0 100 100;" xml:space="preserve">
<style type="text/css">
	.st0{fill:#D9272E;}
	.st1{fill:#004E9B;}
	.st2{fill:#013CA6;}
	.st3{fill:#D9232E;}
</style>
<g>
	<path class="st0" d="M2456.8,3031.7v13c7.1,0,12.9,5.8,12.9,13v117c0,7.2-5.8,13-12.9,13h-90.4c-7.1,0-12.9-5.8-12.9-13v-117
		c0-7.2,5.8-13,12.9-13v-13c-14.2,0-25.8,11.7-25.8,26v117c0,14.3,11.6,26,25.8,26h90.4c14.2,0,25.8-11.7,25.8-26v-117
		C2482.6,3043.3,2471,3031.7,2456.8,3031.7z"/>
	<path class="st1" d="M2408.4,3086.9h45.5c3.9,0,3.9,9.8,0,9.8h-45.5C2404.1,3096.7,2404.1,3086.9,2408.4,3086.9z"/>
	<path class="st1" d="M2396.6,3078.4c-2.4-2-5.8-1.5-7.6,0.9l-10.9,14.5l-3.9-6c-1.3-2-4.1-2.4-5.9-0.8c-2.3,2.1-2.5,5.6-0.5,7.8
		l5.9,6.6c2,2.2,5.4,2.4,7.6,0.3l15.7-15c2.4-2.3,2.2-6.1-0.3-8.2L2396.6,3078.4z"/>
	<path class="st1" d="M2396.6,3110.9c-2.4-2-5.8-1.5-7.6,0.9l-10.9,14.5l-3.9-6c-1.3-2-4.1-2.4-5.9-0.8c-2.3,2.1-2.5,5.6-0.5,7.8
		l5.9,6.6c2,2.2,5.4,2.4,7.6,0.3l15.7-15c2.4-2.3,2.2-6.1-0.3-8.2L2396.6,3110.9z"/>
	<path class="st1" d="M2396.6,3143.4c-2.4-2-5.8-1.5-7.6,0.9l-10.9,14.5l-3.9-6c-1.3-2-4.1-2.4-5.9-0.8c-2.3,2.1-2.5,5.6-0.5,7.8
		l5.9,6.6c2,2.2,5.4,2.4,7.6,0.3l15.7-15c2.4-2.3,2.2-6.1-0.3-8.2L2396.6,3143.4z"/>
	<path class="st1" d="M2408.4,3119.4h45.5c3.9,0,3.9,9.8,0,9.8h-45.5C2404.1,3129.2,2404.1,3119.4,2408.4,3119.4z"/>
	<path class="st1" d="M2408.4,3151.9h45.5c3.9,0,3.9,9.8,0,9.8h-45.5C2404.1,3161.7,2404.1,3151.9,2408.4,3151.9z"/>
	<path class="st0" d="M2437.4,3031.7c0-14.4-11.6-26-25.8-26s-25.8,11.6-25.8,26h-12.9v26c0,3.6,2.9,6.5,6.5,6.5h64.5
		c3.6,0,6.5-2.9,6.5-6.5v-26H2437.4z M2398.7,3031.7c0-7.2,5.8-13,12.9-13c7.1,0,12.9,5.8,12.9,13H2398.7z"/>
</g>
<g>
	<path class="st2" d="M86.9,0H42.1v26.3c0,2.9-2.4,5.3-5.3,5.3H10.5v65.8c0,1.5,1.2,2.6,2.6,2.6h73.7c1.5,0,2.6-1.2,2.6-2.6V2.6
		C89.5,1.2,88.3,0,86.9,0z M64.5,82.9c0,0.7-0.6,1.3-1.3,1.3H17.1c-0.7,0-1.3-0.6-1.3-1.3v-2.6c0-0.7,0.6-1.3,1.3-1.3h46.1
		c0.7,0,1.3,0.6,1.3,1.3V82.9z M84.2,72.4c0,0.7-0.6,1.3-1.3,1.3H17.1c-0.7,0-1.3-0.6-1.3-1.3v-2.6c0-0.7,0.6-1.3,1.3-1.3h65.8
		c0.7,0,1.3,0.6,1.3,1.3V72.4z M84.2,61.8c0,0.7-0.6,1.3-1.3,1.3H17.1c-0.7,0-1.3-0.6-1.3-1.3v-2.6c0-0.7,0.6-1.3,1.3-1.3h65.8
		c0.7,0,1.3,0.6,1.3,1.3V61.8z M84.2,51.3c0,0.7-0.6,1.3-1.3,1.3H17.1c-0.7,0-1.3-0.6-1.3-1.3v-2.6c0-0.7,0.6-1.3,1.3-1.3h65.8
		c0.7,0,1.3,0.6,1.3,1.3V51.3z M84.2,40.8c0,0.7-0.6,1.3-1.3,1.3H17.1c-0.7,0-1.3-0.6-1.3-1.3v-2.6c0-0.7,0.6-1.3,1.3-1.3h65.8
		c0.7,0,1.3,0.6,1.3,1.3V40.8z M84.2,30.3c0,0.7-0.6,1.3-1.3,1.3H48.7c-0.7,0-1.3-0.6-1.3-1.3v-2.6c0-0.7,0.6-1.3,1.3-1.3h34.2
		c0.7,0,1.3,0.6,1.3,1.3V30.3z M84.2,19.7c0,0.7-0.6,1.3-1.3,1.3H48.7c-0.7,0-1.3-0.6-1.3-1.3v-2.6c0-0.7,0.6-1.3,1.3-1.3h34.2
		c0.7,0,1.3,0.6,1.3,1.3V19.7z"/>
	<path class="st3" d="M39.5,0v26.3c0,1.5-1.2,2.6-2.6,2.6H10.5L39.5,0z"/>
</g>
</svg>
