<?xml version="1.0" encoding="utf-8"?>
<!-- Generator: Adobe Illustrator 21.1.0, SVG Export Plug-In . SVG Version: 6.00 Build 0)  -->
<svg version="1.1" id="Layer_1" xmlns="http://www.w3.org/2000/svg" xmlns:xlink="http://www.w3.org/1999/xlink" x="0px" y="0px"
	 viewBox="0 0 100 100" style="enable-background:new 0 0 100 100;" xml:space="preserve">
<style type="text/css">
	.st0{fill:#D9272E;}
	.st1{fill:#004E9B;}
	.st2{fill:#003DA6;}
</style>
<g>
	<path class="st0" d="M2456.8,3031.7v13c7.1,0,12.9,5.8,12.9,13v117c0,7.2-5.8,13-12.9,13h-90.4c-7.1,0-12.9-5.8-12.9-13v-117
		c0-7.2,5.8-13,12.9-13v-13c-14.2,0-25.8,11.7-25.8,26v117c0,14.3,11.6,26,25.8,26h90.4c14.2,0,25.8-11.7,25.8-26v-117
		C2482.6,3043.3,2471,3031.7,2456.8,3031.7z"/>
	<path class="st1" d="M2408.4,3086.9h45.5c3.9,0,3.9,9.8,0,9.8h-45.5C2404.1,3096.7,2404.1,3086.9,2408.4,3086.9z"/>
	<path class="st1" d="M2396.6,3078.4c-2.4-2-5.8-1.5-7.6,0.9l-10.9,14.5l-3.9-6c-1.3-2-4.1-2.4-5.9-0.8c-2.3,2.1-2.5,5.6-0.5,7.8
		l5.9,6.6c2,2.2,5.4,2.4,7.6,0.3l15.7-15c2.4-2.3,2.2-6.1-0.3-8.2L2396.6,3078.4z"/>
	<path class="st1" d="M2396.6,3110.9c-2.4-2-5.8-1.5-7.6,0.9l-10.9,14.5l-3.9-6c-1.3-2-4.1-2.4-5.9-0.8c-2.3,2.1-2.5,5.6-0.5,7.8
		l5.9,6.6c2,2.2,5.4,2.4,7.6,0.3l15.7-15c2.4-2.3,2.2-6.1-0.3-8.2L2396.6,3110.9z"/>
	<path class="st1" d="M2396.6,3143.4c-2.4-2-5.8-1.5-7.6,0.9l-10.9,14.5l-3.9-6c-1.3-2-4.1-2.4-5.9-0.8c-2.3,2.1-2.5,5.6-0.5,7.8
		l5.9,6.6c2,2.2,5.4,2.4,7.6,0.3l15.7-15c2.4-2.3,2.2-6.1-0.3-8.2L2396.6,3143.4z"/>
	<path class="st1" d="M2408.4,3119.4h45.5c3.9,0,3.9,9.8,0,9.8h-45.5C2404.1,3129.2,2404.1,3119.4,2408.4,3119.4z"/>
	<path class="st1" d="M2408.4,3151.9h45.5c3.9,0,3.9,9.8,0,9.8h-45.5C2404.1,3161.7,2404.1,3151.9,2408.4,3151.9z"/>
	<path class="st0" d="M2437.4,3031.7c0-14.4-11.6-26-25.8-26s-25.8,11.6-25.8,26h-12.9v26c0,3.6,2.9,6.5,6.5,6.5h64.5
		c3.6,0,6.5-2.9,6.5-6.5v-26H2437.4z M2398.7,3031.7c0-7.2,5.8-13,12.9-13c7.1,0,12.9,5.8,12.9,13H2398.7z"/>
</g>
<polygon class="st0" points="42.5,70.1 37.7,66.6 62.3,66.6 57.5,70.1 "/>
<path class="st2" d="M99.2,41.9L65.9,67.8L100,93.3v-52C99.7,41.5,99.4,41.7,99.2,41.9z"/>
<path class="st2" d="M1.3,39.7l0.3,0.2l15.3,11.3l0,0l2.8,2.1V19.6c0-1.4,1.2-2.6,2.6-2.6h55.4c1.4,0,2.6,1.2,2.6,2.6v33.7l1.4-1.1
	v0L98,40.2c0.2-0.1,0.4-0.3,0.7-0.5c0.1-0.1,0.3-0.1,0.4-0.2c0,0,0,0,0,0c0,0,0,0,0,0c-0.1-0.1-0.2-0.2-0.4-0.2
	c-0.2-0.2-0.5-0.3-0.7-0.5l-14.9-11v-8c0-3-2.4-5.5-5.4-5.5H64.9l-13-9.6C51.4,4.2,50.7,4,50,4c-0.7,0-1.4,0.2-1.9,0.6l-13,9.6H22.3
	c-3,0-5.4,2.4-5.4,5.5v8L1.6,39l-0.3,0.2c-0.1,0.1-0.3,0.1-0.4,0.2l0,0l0,0C1,39.5,1.2,39.6,1.3,39.7z"/>
<rect x="27.7" y="46.4" class="st0" width="44.5" height="3.6"/>
<polygon class="st0" points="72.3,59.2 72.3,56.5 27.7,56.5 27.7,59.2 28.9,60.1 71.1,60.1 "/>
<path class="st2" d="M52.1,78.5c-0.6,0.4-1.3,0.7-2.1,0.7c-0.8,0-1.6-0.2-2.1-0.7l-11.8-9.2L0.9,95.5C1.3,95.8,1.8,96,2.3,96h95.4
	c0.5,0,1-0.2,1.4-0.5L63.9,69.3L52.1,78.5z"/>
<path class="st2" d="M0.8,41.9c-0.2-0.2-0.5-0.4-0.8-0.6v52l34.1-25.5L0.8,41.9z"/>
<rect x="27.7" y="36.2" class="st0" width="44.5" height="3.6"/>
<rect x="27.7" y="26" class="st0" width="44.5" height="3.6"/>
</svg>
