<?xml version="1.0" encoding="utf-8"?>
<!-- Generator: Adobe Illustrator 21.1.0, SVG Export Plug-In . SVG Version: 6.00 Build 0)  -->
<svg version="1.1" id="Layer_1" xmlns="http://www.w3.org/2000/svg" xmlns:xlink="http://www.w3.org/1999/xlink" x="0px" y="0px"
	 viewBox="0 0 100 100" style="enable-background:new 0 0 100 100;" xml:space="preserve">
<style type="text/css">
	.st0{fill:#D9272E;}
</style>
<g>
	<path class="st0" d="M100,51.7h-4.5V34.4h4.5l0-14.6h-4.5v-6.5L88.1,6l-7.1,7.3v6.5H70v-6.5L62.6,6l-7.1,7.3v6.5H44.5v-6.5L37.1,6
		L30,13.3v6.5H19.1v-6.5L11.7,6l-7.1,7.3v6.5H0l0,14.6h4.5v17.3H0l0,14.6h4.5V94l14.5,0V66.3H30V94l14.5,0V66.3h10.9V94L70,94V66.3
		h10.9V94l14.5,0V66.3h4.5L100,51.7z M19.1,51.7V34.4H30v17.3H19.1z M44.5,51.7V34.4h10.9v17.3H44.5z M70,51.7V34.4h10.9v17.3H70z"
		/>
</g>
</svg>
