<?xml version="1.0" encoding="utf-8"?>
<!-- Generator: Adobe Illustrator 21.1.0, SVG Export Plug-In . SVG Version: 6.00 Build 0)  -->
<svg version="1.1" id="Layer_1" xmlns="http://www.w3.org/2000/svg" xmlns:xlink="http://www.w3.org/1999/xlink" x="0px" y="0px"
	 viewBox="0 0 100 100" style="enable-background:new 0 0 100 100;" xml:space="preserve">
<style type="text/css">
	.st0{fill:#D9272E;}
	.st1{fill:#004E9B;}
</style>
<g>
	<path class="st0" d="M44.1,81.9c0,0-15.7-2.9-17.5-20.8c-1.8-17.9,12-20.6,5.4-43.8c0,0,12.8,6.5,10.5,24.1c0,0,6.4-5,5.9-20
		C47.8,8.5,42,0,42,0s13.8,4.1,16.6,25.5c0,0,4.3-4.7,4.2-13.6c0,0,8.1,16.8,0.9,35.8c0,0,7.1-3.6,8-10.4c0,0,9.4,31.3-13.9,43.8
		c0,0,3-4.9,2.4-13.9c0,0-1.9,4-6.2,4.7c0,0,3.5-7.3,2.1-15.1c0,0-1.9,0.7-2.7,3c0,0-3.3-3.2-2.1-11.6c0,0-9,8.6-5.8,22.1
		c0,0-6.3-2.2-8.9-12.4C36.4,57.9,32.2,68.6,44.1,81.9z"/>
	<g>
		<path class="st1" d="M79.9,96.3c-0.4,2.4-2.7,4.1-5.2,3.6l-51-8.6c-2.4-0.4-4.1-2.7-3.7-5.1l0,0c0.4-2.4,2.7-4.1,5.2-3.6l51,8.6
			C78.7,91.6,80.4,93.9,79.9,96.3L79.9,96.3z"/>
		<path class="st1" d="M20.1,96c0.4,2.4,2.7,4.1,5.2,3.6l51-8.6c2.4-0.4,4.1-2.7,3.7-5.1l0,0c-0.4-2.4-2.7-4.1-5.2-3.6l-51,8.6
			C21.3,91.2,19.7,93.5,20.1,96L20.1,96z"/>
	</g>
</g>
</svg>
