<?xml version="1.0" encoding="utf-8"?>
<!-- Generator: Adobe Illustrator 21.1.0, SVG Export Plug-In . SVG Version: 6.00 Build 0)  -->
<svg version="1.1" id="Layer_1" xmlns="http://www.w3.org/2000/svg" xmlns:xlink="http://www.w3.org/1999/xlink" x="0px" y="0px"
	 viewBox="0 0 100 100" style="enable-background:new 0 0 100 100;" xml:space="preserve">
<style type="text/css">
	.st0{fill:#004E9B;}
	.st1{fill:#D9272E;}
</style>
<g>
	<path class="st0" d="M50,93.1c0,3.8-10.1,6.9-22.5,6.9S5,96.9,5,93.1c0-3.3,7.4-6,17.3-6.7V5.2c0-2.9,2.3-5.2,5.2-5.2
		s5.2,2.3,5.2,5.2v81.2C42.6,87.1,50,89.8,50,93.1z"/>
	<path class="st1" d="M36.2,6.9c0,16.6,0,24.8,0,41.4c18.3-13.6,24.8-3.4,38.2-3.4c8.9,0,19.4-8,20.7-27.6
		C66.4,43.1,68.8-9.1,36.2,6.9z"/>
</g>
</svg>
