<?xml version="1.0" encoding="utf-8"?>
<!-- Generator: Adobe Illustrator 21.1.0, SVG Export Plug-In . SVG Version: 6.00 Build 0)  -->
<svg version="1.1" id="Layer_1" xmlns="http://www.w3.org/2000/svg" xmlns:xlink="http://www.w3.org/1999/xlink" x="0px" y="0px"
	 viewBox="0 0 100 100" style="enable-background:new 0 0 100 100;" xml:space="preserve">
<style type="text/css">
	.st0{fill:#004E9B;}
	.st1{fill:#D9272E;}
</style>
<g>
	<path class="st0" d="M67.6,36.2c-0.7-0.2-1.3-0.4-2-0.7c-2.8-1-5.2-1.8-7.4-2.6c-4.7-1.6-8.7-3-13.9-4.9c-0.9-0.3-1.8-0.6-2.7-1
		c-2.7-1-5.4-2-8.2-2.6c-0.2,0-0.4,0-0.6,0c0,0-0.1,0-0.1,0c-2.2-0.2-4.1,0.3-5.3,1.5c-0.9,0.9-1.4,2.2-1.4,3.7c0,4,4.5,5.5,8.5,6.7
		c0.4,0.1,0.8,0.3,1.2,0.4c5.2,1.7,9.9,3.3,14.3,4.9c4.5,1.5,9.1,3.1,14.2,4.8c0.4,0.1,0.8,0.3,1.2,0.4c1.4,0.5,2.9,1.1,4.3,1.1h0
		c0.3,0,0.7,0,1-0.1c2.5-0.5,4.4-3.1,4.3-5.8C74.8,38.5,71.1,37.4,67.6,36.2z"/>
	<path class="st0" d="M53.2,12.4c1.3,0.3,2.6,0.7,3.8,1.1c1.1,0.4,2.2,0.8,3.2,1.2c1.2,0.5,2.3,0.9,3.4,1.3c0.3,0.1,0.6,0.2,1,0.3
		c1.8,0.6,3.6,1.3,5.3,1.3c0,0,0,0,0,0c0.5,0,1-0.1,1.5-0.2c2.3-0.7,3.6-3.2,3.6-5.2c0-4.3-5.2-5.9-8.9-7c-0.8-0.2-1.5-0.5-2.2-0.7
		c-1.3-0.5-2.7-1-4-1.5c-3.2-1.2-6.3-2.4-9.2-3c-0.2,0-0.4,0-0.6,0c0,0-0.1,0-0.1,0c-0.3,0-0.5,0-0.8,0c-2.1,0-4,0.8-4.9,2.2
		c-0.7,0.9-1.3,2.5-0.4,5C45,10.3,49.2,11.4,53.2,12.4z"/>
	<path class="st0" d="M34.4,21.5c0.4,0.1,0.8,0.3,1.2,0.4c5.2,1.7,9.9,3.3,14.3,4.9c4.5,1.5,9.1,3.1,14.2,4.8
		c0.4,0.1,0.8,0.3,1.2,0.4c1.4,0.5,2.9,1.1,4.3,1.1h0c0.3,0,0.7,0,1-0.1c2.5-0.5,4.4-3.1,4.3-5.8c-0.2-3.6-3.9-4.7-7.4-5.9
		c-0.7-0.2-1.3-0.4-2-0.7c-2.8-1-5.2-1.8-7.4-2.6c-4.7-1.6-8.7-3-13.9-4.9c-0.9-0.3-1.8-0.6-2.7-1c-2.7-1-5.4-2-8.2-2.6
		c-0.2,0-0.4,0-0.6,0c0,0-0.1,0-0.1,0c-2.2-0.2-4.1,0.3-5.3,1.5c-0.9,0.9-1.4,2.2-1.4,3.7C26,18.7,30.4,20.2,34.4,21.5z"/>
	<path class="st0" d="M67.3,50.5c-0.4-0.1-0.8-0.2-1.2-0.4c-4.4-1.5-8.8-3-13-4.6c-6.7-2.4-13-4.7-19.2-6.5c-0.2-0.1-0.4-0.1-0.6,0
		c0,0,0,0-0.1,0c-0.5-0.1-1-0.1-1.4-0.1c-3.5,0-5.8,2-5.9,5.1c-0.1,4.1,4.2,5.5,8,6.7c0.5,0.2,1,0.3,1.4,0.5c2,0.7,3.9,1.3,5.8,1.9
		c7.6,2.5,14.7,4.9,22.8,7.7c0.5,0.2,1.1,0.4,1.6,0.6c1.4,0.6,2.8,1.1,4.1,1.1c0.2,0,0.3,0,0.5,0C73,62.2,75,59.3,75,57
		C75,53,70.9,51.7,67.3,50.5z"/>
	<path class="st1" d="M70,73.4c-0.8-0.7-2-0.8-3.1-0.8c-0.4,0-0.8,0-1.2,0c-0.5,0-0.9,0-1.4,0c-0.6-2.4,0.3-5.8,1-6.3
		c0.3-0.2,0.4-0.5,0.4-0.8c0-0.3-0.3-0.6-0.6-0.7c-1.5-0.5-3.1-1-4.5-1.6c-1.7-0.6-3.4-1.2-5.2-1.8c-0.3-0.1-0.7,0-0.9,0.3
		c-1.7,2.4-2,6-1.8,10.7c-0.3,0.1-0.7,0.1-1.1,0.1c-0.4,0-0.9,0-1.3,0c-0.4,0-0.9,0-1.4,0c0.4-7.5-2.3-13.4-7.5-15.9
		c-1-0.5-2.2-0.8-3.3-1.1c-0.8-0.2-1.6-0.4-2.3-0.6c-0.5-0.2-1.1-0.5-1.7-0.7c-1.4-0.6-2.8-1.3-4.1-1.2c-2,0.1-4.3,2.2-4.7,4
		c-0.9,5.1,3.7,6.4,7.3,7.4c1.3,0.4,2.5,0.7,3.5,1.2c1.1,1.7,1.2,4.5,1.2,7.1c-0.5,0-1.1,0-1.6,0c-0.5,0-1,0-1.5,0c-0.9,0-2,0-3,0.3
		c-0.2,0.1-0.4,0.2-0.5,0.4c-2.3,3.8-0.5,7.7,1.1,11.2c0.6,1.4,1.2,2.7,1.5,3.8c0.1,0.3,0.3,0.5,0.5,0.6c2.3,0.9,4,2,5.2,3.4
		c0.2,0.2,0.5,0.3,0.8,0.3c1-0.2,2.1-0.2,3.5-0.2c2,0,4.2,0.2,6.3,0.3c2.1,0.2,4.3,0.3,6.3,0.3c1.8,0,3.3-0.1,4.5-0.4
		c1.5-0.4,2.3-1.4,3-2.2l0,0c1.3-0.2,2.3-0.8,3.2-1.4c0.2-0.1,0.4-0.2,0.6-0.4c0.2-0.1,0.4-0.3,0.4-0.6c0.3-1.4,0.8-2.7,1.5-4.1
		c1.3-2.9,2.7-6.2,1.3-10.2C70.2,73.6,70.1,73.5,70,73.4z"/>
	<path class="st1" d="M60.9,95.1c0-0.2-0.1-0.5-0.2-0.6c-0.2-0.2-0.4-0.3-0.6-0.3c-0.9,0-1.9,0-3.1,0c-1.5,0-3,0-4.4,0
		c-1.5,0-3,0-4.5,0c-3.2,0-5.6,0.1-7.8,0.3c-0.5,0-0.8,0.5-0.7,0.9c0,0.4,0,0.9,0,1.3c0,1.1-0.1,2.1,0.4,2.9
		c0.2,0.2,0.4,0.4,0.7,0.4h3c0.2,0,0.4-0.1,0.6-0.2c0.5-0.5,0.6-1.3,0.5-2c4.8,0.2,9.7,0.4,14.9,0.8c0.2,0,0.5-0.1,0.7-0.3
		c0.6-0.6,0.5-1.5,0.5-2.4C60.8,95.6,60.8,95.3,60.9,95.1z"/>
</g>
</svg>
