<?xml version="1.0" encoding="utf-8"?>
<!-- Generator: Adobe Illustrator 21.1.0, SVG Export Plug-In . SVG Version: 6.00 Build 0)  -->
<svg version="1.1" id="Layer_1" xmlns="http://www.w3.org/2000/svg" xmlns:xlink="http://www.w3.org/1999/xlink" x="0px" y="0px"
	 viewBox="0 0 100 100" style="enable-background:new 0 0 100 100;" xml:space="preserve">
<style type="text/css">
	.st0{fill:#D9272E;}
	.st1{fill:#004E9B;}
	.st2{fill:#003DA6;}
</style>
<g>
	<path class="st0" d="M2456.8,3031.7v13c7.1,0,12.9,5.8,12.9,13v117c0,7.2-5.8,13-12.9,13h-90.4c-7.1,0-12.9-5.8-12.9-13v-117
		c0-7.2,5.8-13,12.9-13v-13c-14.2,0-25.8,11.7-25.8,26v117c0,14.3,11.6,26,25.8,26h90.4c14.2,0,25.8-11.7,25.8-26v-117
		C2482.6,3043.3,2471,3031.7,2456.8,3031.7z"/>
	<path class="st1" d="M2408.4,3086.9h45.5c3.9,0,3.9,9.8,0,9.8h-45.5C2404.1,3096.7,2404.1,3086.9,2408.4,3086.9z"/>
	<path class="st1" d="M2396.6,3078.4c-2.4-2-5.8-1.5-7.6,0.9l-10.9,14.5l-3.9-6c-1.3-2-4.1-2.4-5.9-0.8c-2.3,2.1-2.5,5.6-0.5,7.8
		l5.9,6.6c2,2.2,5.4,2.4,7.6,0.3l15.7-15c2.4-2.3,2.2-6.1-0.3-8.2L2396.6,3078.4z"/>
	<path class="st1" d="M2396.6,3110.9c-2.4-2-5.8-1.5-7.6,0.9l-10.9,14.5l-3.9-6c-1.3-2-4.1-2.4-5.9-0.8c-2.3,2.1-2.5,5.6-0.5,7.8
		l5.9,6.6c2,2.2,5.4,2.4,7.6,0.3l15.7-15c2.4-2.3,2.2-6.1-0.3-8.2L2396.6,3110.9z"/>
	<path class="st1" d="M2396.6,3143.4c-2.4-2-5.8-1.5-7.6,0.9l-10.9,14.5l-3.9-6c-1.3-2-4.1-2.4-5.9-0.8c-2.3,2.1-2.5,5.6-0.5,7.8
		l5.9,6.6c2,2.2,5.4,2.4,7.6,0.3l15.7-15c2.4-2.3,2.2-6.1-0.3-8.2L2396.6,3143.4z"/>
	<path class="st1" d="M2408.4,3119.4h45.5c3.9,0,3.9,9.8,0,9.8h-45.5C2404.1,3129.2,2404.1,3119.4,2408.4,3119.4z"/>
	<path class="st1" d="M2408.4,3151.9h45.5c3.9,0,3.9,9.8,0,9.8h-45.5C2404.1,3161.7,2404.1,3151.9,2408.4,3151.9z"/>
	<path class="st0" d="M2437.4,3031.7c0-14.4-11.6-26-25.8-26s-25.8,11.6-25.8,26h-12.9v26c0,3.6,2.9,6.5,6.5,6.5h64.5
		c3.6,0,6.5-2.9,6.5-6.5v-26H2437.4z M2398.7,3031.7c0-7.2,5.8-13,12.9-13c7.1,0,12.9,5.8,12.9,13H2398.7z"/>
</g>
<path class="st2" d="M74.2,85.5c-0.1,0-0.2,0-0.3,0c-0.3-0.1-0.6-0.1-1-0.2c-0.4-0.1-0.9-0.2-1.5-0.3c-1.1-0.2-1.9-0.7-2.3-1.4
	c-0.6-1.1-0.1-2.5-0.1-2.5l7.9-22.7h12.9L75.7,84.5C75.7,84.5,75.2,85.5,74.2,85.5L74.2,85.5z"/>
<path class="st0" d="M44.6,73.8V14.5h0.2c0.7,1.3,11.2,18.8,28.3,19.1v21.2C56,55,45.6,72.5,44.8,73.8H44.6z"/>
<path class="st0" d="M40.5,73.8V52.4l-6.7-2.2c-1.2-0.4-2.2-1.7-2.2-3v-6.1c0-1.3,1-2.6,2.2-3l6.7-2.2V14.5h1.9v59.3H40.5z"/>
<rect x="75.8" y="32.6" class="st2" width="16.3" height="23.2"/>
<path class="st0" d="M94.6,34.5c1.7,0.2,5.4,3.6,5.4,9.7c0,6.1-3.5,9.5-5.4,9.7V34.5z"/>
<path class="st2" d="M12,69.5c-0.5,0-1-0.2-1.3-0.5l0,0c-0.1-0.1-0.3-0.3-1-1.1C1.7,59.7-1.6,48.1,0.7,37c1.4-6.6,4.7-12.6,9.5-17.4
	l0.9-0.9c0.2-0.2,0.6-0.3,0.9-0.3c0.5,0,1.1,0.2,1.5,0.6c0.4,0.4,0.6,0.8,0.6,1.3c0,0.2-0.1,0.4-0.3,0.5L13,21.7
	c-4.5,4.4-7.6,9.9-8.9,16C2,47.8,5,58.3,12.3,65.8l1,1c0.4,0.3,0.6,0.7,0.6,1.1c0,0.4-0.2,0.8-0.5,1.1C13,69.4,12.5,69.5,12,69.5z"
	/>
<path class="st2" d="M19.2,61.7c-0.5,0-1-0.2-1.3-0.4c-0.1-0.1-0.3-0.3-1.1-1.1c-5.3-5.6-7.5-13.4-5.9-20.9
	c0.9-4.5,3.1-8.5,6.4-11.7l1-0.9c0.2-0.1,0.6-0.3,1-0.3c0.6,0,1.2,0.2,1.6,0.6l0.1,0.1c0.3,0.3,0.5,0.7,0.5,1.1
	c0,0.3-0.2,0.5-0.4,0.7l-1.1,1c-2.9,2.8-4.9,6.3-5.7,10.2c-1.4,6.6,0.7,13.5,5.5,18.3l0.9,0.9c0.4,0.3,0.5,0.5,0.6,0.8
	c0,0.4-0.2,0.7-0.5,1l-0.1,0.1C20.3,61.5,19.8,61.7,19.2,61.7z"/>
<path class="st2" d="M26.8,53.8c-1,0-2.1-0.7-2.6-1.2c-2.8-2.9-4.1-7-3.2-11c0.5-2.3,1.7-4.5,3.4-6.1c0.5-0.4,1.6-1.1,2.5-1.1
	c0.5,0,0.9,0.2,1.3,0.6c0.2,0.2,0.2,0.4,0.2,0.6c0,0.6-0.6,1.4-1.1,1.9c-1.5,1.3-2.5,2.9-2.9,4.9c-0.7,3.3,0.6,6.7,3.3,8.8
	c0.2,0.2,0.5,0.8,0.6,1.4c0,0.4-0.1,0.6-0.2,0.7C27.8,53.6,27.3,53.8,26.8,53.8z"/>
</svg>
