<?xml version="1.0" encoding="utf-8"?>
<!-- Generator: Adobe Illustrator 21.1.0, SVG Export Plug-In . SVG Version: 6.00 Build 0)  -->
<svg version="1.1" id="Layer_1" xmlns="http://www.w3.org/2000/svg" xmlns:xlink="http://www.w3.org/1999/xlink" x="0px" y="0px"
	 viewBox="0 0 100 100" style="enable-background:new 0 0 100 100;" xml:space="preserve">
<style type="text/css">
	.st0{fill:#D9272E;}
	.st1{fill:#004E9B;}
	.st2{fill:#4C4C4C;}
</style>
<g>
	<path class="st0" d="M2456.8,3031.7v13c7.1,0,12.9,5.8,12.9,13v117c0,7.2-5.8,13-12.9,13h-90.4c-7.1,0-12.9-5.8-12.9-13v-117
		c0-7.2,5.8-13,12.9-13v-13c-14.2,0-25.8,11.7-25.8,26v117c0,14.3,11.6,26,25.8,26h90.4c14.2,0,25.8-11.7,25.8-26v-117
		C2482.6,3043.3,2471,3031.7,2456.8,3031.7z"/>
	<path class="st1" d="M2408.4,3086.9h45.5c3.9,0,3.9,9.8,0,9.8h-45.5C2404.1,3096.7,2404.1,3086.9,2408.4,3086.9z"/>
	<path class="st1" d="M2396.6,3078.4c-2.4-2-5.8-1.5-7.6,0.9l-10.9,14.5l-3.9-6c-1.3-2-4.1-2.4-5.9-0.8c-2.3,2.1-2.5,5.6-0.5,7.8
		l5.9,6.6c2,2.2,5.4,2.4,7.6,0.3l15.7-15c2.4-2.3,2.2-6.1-0.3-8.2L2396.6,3078.4z"/>
	<path class="st1" d="M2396.6,3110.9c-2.4-2-5.8-1.5-7.6,0.9l-10.9,14.5l-3.9-6c-1.3-2-4.1-2.4-5.9-0.8c-2.3,2.1-2.5,5.6-0.5,7.8
		l5.9,6.6c2,2.2,5.4,2.4,7.6,0.3l15.7-15c2.4-2.3,2.2-6.1-0.3-8.2L2396.6,3110.9z"/>
	<path class="st1" d="M2396.6,3143.4c-2.4-2-5.8-1.5-7.6,0.9l-10.9,14.5l-3.9-6c-1.3-2-4.1-2.4-5.9-0.8c-2.3,2.1-2.5,5.6-0.5,7.8
		l5.9,6.6c2,2.2,5.4,2.4,7.6,0.3l15.7-15c2.4-2.3,2.2-6.1-0.3-8.2L2396.6,3143.4z"/>
	<path class="st1" d="M2408.4,3119.4h45.5c3.9,0,3.9,9.8,0,9.8h-45.5C2404.1,3129.2,2404.1,3119.4,2408.4,3119.4z"/>
	<path class="st1" d="M2408.4,3151.9h45.5c3.9,0,3.9,9.8,0,9.8h-45.5C2404.1,3161.7,2404.1,3151.9,2408.4,3151.9z"/>
	<path class="st0" d="M2437.4,3031.7c0-14.4-11.6-26-25.8-26s-25.8,11.6-25.8,26h-12.9v26c0,3.6,2.9,6.5,6.5,6.5h64.5
		c3.6,0,6.5-2.9,6.5-6.5v-26H2437.4z M2398.7,3031.7c0-7.2,5.8-13,12.9-13c7.1,0,12.9,5.8,12.9,13H2398.7z"/>
</g>
<g id="Page-1">
	<g id="SP_x2_FilteringLayerSearch_Xs_N_D">
		<path id="Fill-2" class="st2" d="M3.1,81.9c0,0-7,7,0,15c6.5,7,14.6,0,14.6,0l24.1-22.5c0,0,11,4.5,18.6,4.5
			c22.1,0,39.7-17.5,39.7-39.5C100,18,82.4,0,60.3,0S20.7,17.5,20.7,39.5c0,7,1.5,13,4.5,18.5L3.1,81.9z M32.2,39.5
			C32.2,24,44.8,11,60.8,11c15.6,0,28.6,12.5,28.6,28.5C89.4,55,76.9,68,60.8,68C45.3,67.9,32.2,54.9,32.2,39.5z"/>
	</g>
</g>
</svg>
