<?xml version="1.0" encoding="utf-8"?>
<!-- Generator: Adobe Illustrator 21.1.0, SVG Export Plug-In . SVG Version: 6.00 Build 0)  -->
<!DOCTYPE svg PUBLIC "-//W3C//DTD SVG 1.1//EN" "http://www.w3.org/Graphics/SVG/1.1/DTD/svg11.dtd">
<svg version="1.1" id="Layer_1" xmlns="http://www.w3.org/2000/svg" xmlns:xlink="http://www.w3.org/1999/xlink" x="0px" y="0px"
	 viewBox="0 0 1000 1000" enable-background="new 0 0 1000 1000" xml:space="preserve">
<path d="M750,0.3L620.3,0.1c-145.7,0-239.8,96.6-239.8,246.1v113.5H250.2c-11.3,0-20.4,9.1-20.4,20.4v164.4
	c0,11.3,9.1,20.4,20.4,20.4h130.4v414.8c0,11.3,9.1,20.4,20.4,20.4H571c11.3,0,20.4-9.1,20.4-20.4V564.8h152.4
	c11.3,0,20.4-9.1,20.4-20.4l0.1-164.4c0-5.4-2.2-10.6-6-14.4c-3.8-3.8-9-6-14.4-6H591.4v-96.2c0-46.2,11-69.7,71.2-69.7l87.3,0
	c11.3,0,20.4-9.1,20.4-20.4V20.7C770.4,9.5,761.2,0.4,750,0.3z"/>
</svg>
