<?xml version="1.0" encoding="utf-8"?>
<!-- Generator: Adobe Illustrator 21.1.0, SVG Export Plug-In . SVG Version: 6.00 Build 0)  -->
<svg version="1.1" id="Layer_1" xmlns="http://www.w3.org/2000/svg" xmlns:xlink="http://www.w3.org/1999/xlink" x="0px" y="0px"
	 viewBox="0 0 540.5 1000" style="enable-background:new 0 0 540.5 1000;" xml:space="preserve">
<style type="text/css">
	.st0{fill:#FFFFFF;}
</style>
<path class="st0" d="M520.2,0.2L390.5,0C244.8,0,150.7,96.6,150.7,246.1v113.5H20.4C9.1,359.6,0,368.7,0,380v164.4
	c0,11.3,9.1,20.4,20.4,20.4h130.4v414.8c0,11.3,9.1,20.4,20.4,20.4h170c11.3,0,20.4-9.1,20.4-20.4V564.7H514
	c11.3,0,20.4-9.1,20.4-20.4l0.1-164.4c0-5.4-2.2-10.6-6-14.4s-9-6-14.4-6H361.6v-96.2c0-46.2,11-69.7,71.2-69.7h87.3
	c11.3,0,20.4-9.1,20.4-20.4V20.6C540.6,9.4,531.4,0.3,520.2,0.2z"/>
</svg>
