<?xml version="1.0" encoding="utf-8"?>
<!-- Generator: Adobe Illustrator 21.1.0, SVG Export Plug-In . SVG Version: 6.00 Build 0)  -->
<svg version="1.1" id="Layer_1" xmlns="http://www.w3.org/2000/svg" xmlns:xlink="http://www.w3.org/1999/xlink" x="0px" y="0px"
	 viewBox="0 0 1000 1000" style="enable-background:new 0 0 1000 1000;" xml:space="preserve">
<style type="text/css">
	.st0{fill:#FFFFFF;}
</style>
<g>
	<path class="st0" d="M575.9,636.1c-10.6-14.2-22.3-27.4-35.1-39.6c-12.8-12.2-25.6-23.3-38.4-33.3c-12.8-10-24.5-19.6-35.1-28.8
		s-19.2-18.8-25.8-28.8c-6.6-10-9.9-20.2-9.9-30.6c0-14.4,4.6-27.9,13.8-40.5c9.2-12.6,20.4-24.8,33.6-36.6
		c13.2-11.8,26.4-24.7,39.6-38.7c13.2-14,24.4-32.5,33.6-55.5c9.2-23,13.8-49.3,13.8-78.9c0-35.2-7.8-69.1-23.4-101.5
		c-15.6-32.4-37.6-57.6-66-75.7h81l81-47.6H376.3C339,0,301.6,4,264,12c-55.6,12.4-102.5,40.7-140.5,85c-38,44.2-57,94.4-57,150.4
		c0,59.2,21.3,108.5,63.9,147.7s93.8,58.8,153.4,58.8c12,0,26-1,42-3c-0.8,3.2-2.2,7.5-4.2,12.9s-3.6,9.7-4.8,12.9
		c-1.2,3.2-2.2,7.1-3,11.7s-1.2,9.3-1.2,14.1c0,26.4,12.8,56.2,38.4,89.5c-30.4,0.8-60.4,3.5-90.1,8.1
		c-29.6,4.6-60.6,11.8-93.1,21.6c-32.4,9.8-61.4,24-87.1,42.6C55.3,683,36,705.1,23.2,730.7C8.4,760.3,1,787.4,1,811.8
		c0,26.8,6,51.1,18,73c12,21.8,27.4,39.6,46.2,53.4C84,952,105.7,963.6,130.3,973c24.6,9.4,49,16.1,73.2,20.1s48.1,6,71.8,6
		c107.3,0,191.3-26.2,252.2-78.6c56-48.8,84.1-105.3,84.1-169.3c0-22.8-3.3-44.1-9.9-63.9C595.1,667.3,586.5,650.3,575.9,636.1z
		 M344.4,417.9c-20.4,0-39.8-5.2-58.2-15.6c-18.4-10.4-34-23.9-46.8-40.5s-24-35.3-33.6-56.1c-9.6-20.8-16.7-41.6-21.3-62.4
		s-6.9-40.6-6.9-59.4c0-38.4,10.2-71.4,30.6-99.1c20.4-27.6,49.2-41.4,86.5-41.4c26.4,0,50.3,8.2,71.7,24.6
		c21.4,16.4,38.2,37.2,50.4,62.4c12.2,25.2,21.6,51.3,28.2,78.3s9.9,52.5,9.9,76.6c0,40-8.7,72.2-26.1,96.4
		C411.4,405.8,383.3,417.9,344.4,417.9z M510.4,868.8c-11,18.8-25.9,33.5-44.7,44.1c-18.8,10.6-38.9,18.4-60.3,23.4
		s-43.9,7.5-67.5,7.5c-25.6,0-51-3-76.2-9s-49.3-15.1-72.3-27.3s-41.6-29-55.8-50.4c-14.2-21.4-21.3-45.7-21.3-73
		c0-24,5.4-45.4,16.2-64.2s24.6-33.8,41.4-45s36.4-20.4,58.8-27.6c22.4-7.2,44-12.2,64.8-15s42-4.2,63.6-4.2c13.2,0,23.2,0.4,30,1.2
		c2.4,1.6,8.5,5.8,18.3,12.6s16.4,11.4,19.8,13.8c3.4,2.4,9.6,7,18.6,13.8s15.4,11.9,19.2,15.3c3.8,3.4,9.3,8.5,16.5,15.3
		s12.5,12.7,15.9,17.7s7.6,11.1,12.6,18.3s8.5,14.1,10.5,20.7c2,6.6,3.9,13.8,5.7,21.6s2.7,15.9,2.7,24.3
		C527,828,521.5,850,510.4,868.8z"/>
	<polygon class="st0" points="846.4,153.7 846.4,0 769.5,0 769.5,153.7 615.8,153.7 615.8,230.6 769.5,230.6 769.5,384.3 
		846.4,384.3 846.4,230.6 1000.1,230.6 1000.1,153.7 	"/>
</g>
</svg>
