<?xml version="1.0" encoding="utf-8"?>
<!-- Generator: Adobe Illustrator 21.1.0, SVG Export Plug-In . SVG Version: 6.00 Build 0)  -->
<svg version="1.1" id="Layer_1" xmlns="http://www.w3.org/2000/svg" xmlns:xlink="http://www.w3.org/1999/xlink" x="0px" y="0px"
	 viewBox="0 0 1000 1000" style="enable-background:new 0 0 1000 1000;" xml:space="preserve">
<style type="text/css">
	.st0{fill:#FFFFFF;}
</style>
<g>
	<path class="st0" d="M822.9,0H256.8c0.5,1.8,0.7,3.7,0.7,5.7v221.6c0,12.6-10.2,22.7-22.7,22.7s-22.7-10.2-22.7-22.7V5.7
		c0-2,0.3-3.9,0.7-5.7H196c-5.4,0-10.6,0.2-15.8,0.5c0.4,1.7,0.6,3.4,0.6,5.2v221.6c0,12.6-10.2,22.7-22.7,22.7
		s-22.7-10.2-22.7-22.7V8.4c-11.2,3.4-21.7,7.7-31.3,12.8c0,0.5,0.1,1,0.1,1.5v204.5c0,12.6-10.2,22.7-22.7,22.7
		s-22.7-10.2-22.7-22.7V56.5C16.9,102.4,0,169.2,0,230.1v64.2h289.7v1.7c50.8-59.4,126.2-97.1,210.2-97.1
		c83,0,157.5,36.7,208.2,94.8H1000v-70.1C1000,85.5,908.1,0,822.9,0z M893.9,184.8c0,27.6-22.4,50-50,50h-74.2
		c-27.7,0-50-22.4-50-50v-74.2c0-27.6,22.4-50,50-50h74.2c27.7,0,50,22.4,50,50V184.8z"/>
	<path class="st0" d="M776.5,475.4c0,152.5-124,276.5-276.5,276.5s-276.5-124-276.5-276.5c0-48.3,12.5-93.8,34.3-133.3H0v454.8
		C0,964.8,122.6,1000,225.4,1000h576.7c112.8,0,197.9-88.7,197.9-206.4V342.7H742.5C764.2,382.1,776.5,427.3,776.5,475.4z"/>
	<path class="st0" d="M500,706.5c127.4,0,231.1-103.7,231.1-231.1S627.4,244.3,500,244.3S268.9,348,268.9,475.4
		S372.6,706.5,500,706.5z M500,301.1c96.2,0,174.2,78,174.2,174.3s-78,174.2-174.2,174.2s-174.3-78-174.3-174.2
		S403.7,301.1,500,301.1z"/>
</g>
</svg>
