<?xml version="1.0" encoding="utf-8"?>
<!-- Generator: Adobe Illustrator 21.1.0, SVG Export Plug-In . SVG Version: 6.00 Build 0)  -->
<!DOCTYPE svg PUBLIC "-//W3C//DTD SVG 1.1//EN" "http://www.w3.org/Graphics/SVG/1.1/DTD/svg11.dtd">
<svg version="1.1" id="Layer_1" xmlns="http://www.w3.org/2000/svg" xmlns:xlink="http://www.w3.org/1999/xlink" x="0px" y="0px"
	 viewBox="0 0 1000 1000" enable-background="new 0 0 1000 1000" xml:space="preserve">
<g>
	<rect x="13.5" y="333.3" width="214" height="643.8"/>
	<path d="M121.9,22.9C48.7,22.9,0.8,71,0.8,134.1c0,61.8,46.5,111.3,118.3,111.3h1.4c74.7,0,121.1-49.5,121.1-111.3
		C240.2,71,195.1,22.9,121.9,22.9z"/>
	<path d="M752.8,318.2c-113.7,0-164.5,62.6-192.9,106.4v2.1h-1.4c0.4-0.7,1-1.4,1.4-2.1v-91.3H345.8c2.9,60.4,0,643.8,0,643.8h214.1
		V617.5c0-19.3,1.5-38.4,7.1-52.2c15.5-38.5,50.7-78.3,109.8-78.3c77.5,0,108.4,59,108.4,145.6v344.4h214V607.9
		C999.2,410.2,893.7,318.1,752.8,318.2z"/>
</g>
</svg>
