<?xml version="1.0" encoding="utf-8"?>
<!-- Generator: Adobe Illustrator 21.1.0, SVG Export Plug-In . SVG Version: 6.00 Build 0)  -->
<svg version="1.1" id="Layer_1" xmlns="http://www.w3.org/2000/svg" xmlns:xlink="http://www.w3.org/1999/xlink" x="0px" y="0px"
	 viewBox="0 0 1000 954.2" style="enable-background:new 0 0 1000 954.2;" xml:space="preserve">
<style type="text/css">
	.st0{fill:#DC1C2E;}
</style>
<g>
	<rect x="13.5" y="310.4" class="st0" width="214" height="643.8"/>
	<path class="st0" d="M121.9,0C48.7,0,0.8,48.1,0.8,111.2c0,61.8,46.5,111.3,118.3,111.3h1.4c74.7,0,121.1-49.5,121.1-111.3
		C240.2,48.1,195.1,0,121.9,0z"/>
	<path class="st0" d="M752.8,295.3c-113.7,0-164.5,62.6-192.9,106.4v2.1h-1.4c0.4-0.7,1-1.4,1.4-2.1v-91.3H345.8
		c2.9,60.4,0,643.8,0,643.8h214.1V594.6c0-19.3,1.5-38.4,7.1-52.2c15.5-38.5,50.7-78.3,109.8-78.3c77.5,0,108.4,59,108.4,145.6
		v344.4h214V585C999.2,387.3,893.7,295.2,752.8,295.3z"/>
</g>
</svg>
