<?xml version="1.0" encoding="utf-8"?>
<!-- Generator: Adobe Illustrator 21.1.0, SVG Export Plug-In . SVG Version: 6.00 Build 0)  -->
<!DOCTYPE svg PUBLIC "-//W3C//DTD SVG 1.1//EN" "http://www.w3.org/Graphics/SVG/1.1/DTD/svg11.dtd">
<svg version="1.1" id="Layer_1" xmlns="http://www.w3.org/2000/svg" xmlns:xlink="http://www.w3.org/1999/xlink" x="0px" y="0px"
	 viewBox="0 0 1000 1000" enable-background="new 0 0 1000 1000" xml:space="preserve">
<path d="M884.4,278.1C857.1,80.4,660.1-20.2,450,3.4C283.9,22,118.2,156.3,111.4,348.4c-4.2,117.2,29.1,205.2,140.6,229.9
	c48.3-85.5-15.6-104.2-25.6-166.1c-40.9-253.1,292-426,466.4-249.1C813.6,285.6,734,662.2,539.5,623
	c-186.3-37.4,91.2-337.2-57.4-396C361.2,179.1,297,373.3,354.3,469.8c-33.6,165.9-106,322.2-76.7,530.2
	c95-69,127.1-200.9,153.3-338.6c47.7,29.1,73.3,59.1,134.2,63.8C789.6,742.6,915.2,501.1,884.4,278.1z"/>
</svg>
