<?xml version="1.0" encoding="utf-8"?>
<!-- Generator: Adobe Illustrator 21.1.0, SVG Export Plug-In . SVG Version: 6.00 Build 0)  -->
<svg version="1.1" id="Layer_1" xmlns="http://www.w3.org/2000/svg" xmlns:xlink="http://www.w3.org/1999/xlink" x="0px" y="0px"
	 viewBox="0 0 1000 812" style="enable-background:new 0 0 1000 812;" xml:space="preserve">
<style type="text/css">
	.st0{fill:#FFFFFF;}
</style>
<path class="st0" d="M999.8,96.1c-36.8,16.3-76.3,27.4-117.7,32.3C924.5,103,956.9,62.8,972.2,15c-39.7,23.5-83.6,40.5-130.3,49.8
	C804.5,24.9,751.3,0,692.2,0c-113.2,0-205,91.8-205,205c0,16.1,1.8,31.7,5.3,46.7C322.1,243.2,171,161.5,69.8,37.5
	C52.1,67.7,42.1,103,42.1,140.6c0,71.1,36.2,133.9,91.2,170.7c-33.6-1.1-65.2-10.4-92.9-25.7v2.6c0,99.3,70.7,182.2,164.5,201.1
	c-17.2,4.6-35.3,7.2-54,7.2c-13.2,0-26-1.3-38.6-3.8c26.1,81.5,101.8,140.8,191.5,142.4c-70.2,55-158.6,87.6-254.7,87.6
	c-16.6,0-32.9-1-48.9-2.8C90.9,778,198.7,812,314.5,812c377.2,0,583.4-312.5,583.4-583.4l-0.7-26.5
	C937.5,173.3,972.4,137.2,999.8,96.1z"/>
</svg>
