<?xml version="1.0" encoding="utf-8"?>
<!-- Generator: Adobe Illustrator 21.1.0, SVG Export Plug-In . SVG Version: 6.00 Build 0)  -->
<!DOCTYPE svg PUBLIC "-//W3C//DTD SVG 1.1//EN" "http://www.w3.org/Graphics/SVG/1.1/DTD/svg11.dtd">
<svg version="1.1" id="Layer_1" xmlns="http://www.w3.org/2000/svg" xmlns:xlink="http://www.w3.org/1999/xlink" x="0px" y="0px"
	 viewBox="0 0 1000 1000" enable-background="new 0 0 1000 1000" xml:space="preserve">
<path d="M999.8,190.1c-36.8,16.3-76.3,27.4-117.7,32.3c42.4-25.4,74.8-65.6,90.1-113.4c-39.7,23.5-83.6,40.5-130.3,49.8
	C804.5,118.9,751.3,94,692.2,94C579,94,487.2,185.8,487.2,299c0,16.1,1.8,31.7,5.3,46.7C322.1,337.2,171,255.5,69.8,131.5
	c-17.7,30.2-27.7,65.5-27.7,103.1c0,71.1,36.2,133.9,91.2,170.7c-33.6-1.1-65.2-10.4-92.9-25.7v2.6c0,99.3,70.7,182.2,164.5,201.1
	c-17.2,4.6-35.3,7.2-54,7.2c-13.2,0-26-1.3-38.6-3.8c26.1,81.5,101.8,140.8,191.5,142.4c-70.2,55-158.6,87.6-254.7,87.6
	c-16.6,0-32.9-1-48.9-2.8C90.9,872,198.7,906,314.5,906c377.2,0,583.4-312.5,583.4-583.4l-0.7-26.5
	C937.5,267.3,972.4,231.2,999.8,190.1z"/>
</svg>
