<?xml version="1.0" standalone="no"?>
<!DOCTYPE svg PUBLIC "-//W3C//DTD SVG 20010904//EN"
 "http://www.w3.org/TR/2001/REC-SVG-20010904/DTD/svg10.dtd">
<svg version="1.0" xmlns="http://www.w3.org/2000/svg"
 width="512.000000pt" height="512.000000pt" viewBox="0 0 512.000000 512.000000"
 preserveAspectRatio="xMidYMid meet">
<metadata>
Created by potrace 1.11, written by Peter Selinger 2001-2013
</metadata>
<g transform="translate(0.000000,512.000000) scale(0.100000,-0.100000)"
fill="#000000" stroke="none">
<path d="M2420 5050 c-94 -12 -222 -56 -268 -93 -7 -6 -50 -10 -95 -10 -114 2
-252 -22 -332 -57 -11 -5 -37 -16 -59 -24 -43 -18 -158 -93 -196 -128 -14 -13
-44 -29 -66 -36 -138 -41 -389 -275 -526 -492 -95 -149 -209 -407 -186 -421 6
-4 4 -22 -6 -52 -70 -207 -89 -557 -45 -837 28 -182 104 -454 132 -472 9 -6 9
-10 -2 -17 -30 -20 97 -241 267 -466 65 -85 254 -319 272 -335 3 -3 36 -41 74
-85 38 -44 79 -89 90 -101 12 -11 57 -61 101 -109 126 -139 272 -290 517 -537
l227 -228 239 0 238 0 190 189 c224 223 405 410 529 546 50 54 98 107 108 117
10 11 54 60 99 111 44 51 94 108 112 127 17 19 87 105 156 191 214 267 388
547 359 576 -5 5 -1 26 11 51 28 58 86 273 111 412 27 147 37 457 20 597 -20
163 -75 396 -113 483 -97 219 -206 379 -367 540 -105 104 -213 181 -291 209
-28 10 -63 29 -78 43 -41 38 -109 81 -187 120 -61 30 -90 41 -140 54 -90 22
-127 27 -222 29 -80 1 -118 6 -135 17 -57 37 -109 57 -223 84 -34 8 -257 11
-315 4z"/>
<path d="M2333 336 c-4 -5 2 -15 11 -21 9 -7 19 -26 22 -41 2 -16 7 -36 11
-44 3 -8 8 -21 10 -27 8 -29 10 -40 17 -68 4 -16 12 -43 17 -60 l9 -30 132 0
133 0 13 45 c7 25 14 52 16 61 8 30 28 104 34 119 7 20 9 28 11 40 0 6 7 9 14
8 6 -2 12 4 12 12 0 13 -32 15 -228 15 -126 0 -231 -4 -234 -9z"/>
<path d="M3040 340 c-8 -5 -17 -7 -20 -5 -4 2 -23 -9 -43 -26 -112 -92 -34
-265 113 -253 19 2 36 8 38 13 2 6 9 11 16 11 13 0 38 27 56 60 15 29 15 92 0
121 -16 29 -65 72 -88 75 -9 2 -25 5 -36 8 -12 3 -28 1 -36 -4z"/>
</g>
</svg>
